<svg xmlns="http://www.w3.org/2000/svg" viewBox="0 0 18.7329 14.9232" width="18.7329mm" height="14.9232mm"><title>Limestone - FGDC 627</title><rect width="100%" height="100%" fill="white"/><path d="M0.0000 7.4242 L8.0768 7.4242" fill="none" stroke="#202a30" stroke-width="0.1062" stroke-linecap="round" stroke-linejoin="round"/><path d="M0.0000 8.9013 L8.0768 8.9013" fill="none" stroke="#202a30" stroke-width="0.1062" stroke-linecap="round" stroke-linejoin="round"/><path d="M0.0000 10.3830 L8.0768 10.3830" fill="none" stroke="#202a30" stroke-width="0.1062" stroke-linecap="round" stroke-linejoin="round"/><path d="M0.0000 11.8047 L8.0768 11.8047" fill="none" stroke="#202a30" stroke-width="0.1062" stroke-linecap="round" stroke-linejoin="round"/><path d="M0.0000 12.9656 L8.0768 12.9656" fill="none" stroke="#202a30" stroke-width="0.1062" stroke-linecap="round" stroke-linejoin="round"/><path d="M0.0000 14.1774 L8.0768 14.1774" fill="none" stroke="#202a30" stroke-width="0.1062" stroke-linecap="round" stroke-linejoin="round"/><path d="M0.3041 6.0978 L0.3041 7.4242" fill="none" stroke="#202a30" stroke-width="0.1062" stroke-linecap="round" stroke-linejoin="round"/><path d="M5.3943 6.0978 L5.3943 7.4242" fill="none" stroke="#202a30" stroke-width="0.1062" stroke-linecap="round" stroke-linejoin="round"/><path d="M3.4646 7.4023 L3.4646 8.8971" fill="none" stroke="#202a30" stroke-width="0.1062" stroke-linecap="round" stroke-linejoin="round"/><path d="M8.0059 7.4023 L8.0059 8.8971" fill="none" stroke="#202a30" stroke-width="0.1062" stroke-linecap="round" stroke-linejoin="round"/><path d="M0.8975 8.9457 L0.8975 10.3787" fill="none" stroke="#202a30" stroke-width="0.1062" stroke-linecap="round" stroke-linejoin="round"/><path d="M6.1867 8.9457 L6.1867 10.3787" fill="none" stroke="#202a30" stroke-width="0.1062" stroke-linecap="round" stroke-linejoin="round"/><path d="M3.1327 10.3787 L3.1327 11.7937" fill="none" stroke="#202a30" stroke-width="0.1062" stroke-linecap="round" stroke-linejoin="round"/><path d="M7.8246 10.3787 L7.8246 11.7937" fill="none" stroke="#202a30" stroke-width="0.1062" stroke-linecap="round" stroke-linejoin="round"/><path d="M5.3943 11.7937 L5.3943 12.9614" fill="none" stroke="#202a30" stroke-width="0.1062" stroke-linecap="round" stroke-linejoin="round"/><path d="M0.2159 11.7937 L0.2159 12.9614" fill="none" stroke="#202a30" stroke-width="0.1062" stroke-linecap="round" stroke-linejoin="round"/><path d="M3.5087 12.9614 L3.5087 14.1728" fill="none" stroke="#202a30" stroke-width="0.1062" stroke-linecap="round" stroke-linejoin="round"/><path d="M8.0236 12.9614 L8.0236 14.1728" fill="none" stroke="#202a30" stroke-width="0.1062" stroke-linecap="round" stroke-linejoin="round"/><path d="M0.8752 14.1728 L0.8752 14.9232" fill="none" stroke="#202a30" stroke-width="0.1062" stroke-linecap="round" stroke-linejoin="round"/><path d="M6.1426 14.1728 L6.1426 14.9232" fill="none" stroke="#202a30" stroke-width="0.1062" stroke-linecap="round" stroke-linejoin="round"/><path d="M8.0052 7.4242 L18.7329 7.4242" fill="none" stroke="#202a30" stroke-width="0.1062" stroke-linecap="round" stroke-linejoin="round"/><path d="M8.0052 8.9013 L18.7329 8.9013" fill="none" stroke="#202a30" stroke-width="0.1062" stroke-linecap="round" stroke-linejoin="round"/><path d="M8.0052 10.3830 L18.7329 10.3830" fill="none" stroke="#202a30" stroke-width="0.1062" stroke-linecap="round" stroke-linejoin="round"/><path d="M8.0052 11.8047 L18.7329 11.8047" fill="none" stroke="#202a30" stroke-width="0.1062" stroke-linecap="round" stroke-linejoin="round"/><path d="M8.0052 12.9656 L18.7329 12.9656" fill="none" stroke="#202a30" stroke-width="0.1062" stroke-linecap="round" stroke-linejoin="round"/><path d="M8.0052 14.1774 L18.7329 14.1774" fill="none" stroke="#202a30" stroke-width="0.1062" stroke-linecap="round" stroke-linejoin="round"/><path d="M10.1032 6.0978 L10.1032 7.4242" fill="none" stroke="#202a30" stroke-width="0.1062" stroke-linecap="round" stroke-linejoin="round"/><path d="M14.6181 6.0978 L14.6181 7.4242" fill="none" stroke="#202a30" stroke-width="0.1062" stroke-linecap="round" stroke-linejoin="round"/><path d="M12.4668 7.4023 L12.4668 8.8971" fill="none" stroke="#202a30" stroke-width="0.1062" stroke-linecap="round" stroke-linejoin="round"/><path d="M17.7341 7.4023 L17.7341 8.8971" fill="none" stroke="#202a30" stroke-width="0.1062" stroke-linecap="round" stroke-linejoin="round"/><path d="M10.4973 8.9457 L10.4973 10.3787" fill="none" stroke="#202a30" stroke-width="0.1062" stroke-linecap="round" stroke-linejoin="round"/><path d="M15.1888 8.9457 L15.1888 10.3787" fill="none" stroke="#202a30" stroke-width="0.1062" stroke-linecap="round" stroke-linejoin="round"/><path d="M17.4907 10.3787 L17.4907 11.7937" fill="none" stroke="#202a30" stroke-width="0.1062" stroke-linecap="round" stroke-linejoin="round"/><path d="M12.2234 10.3787 L12.2234 11.7937" fill="none" stroke="#202a30" stroke-width="0.1062" stroke-linecap="round" stroke-linejoin="round"/><path d="M14.6181 11.7937 L14.6181 12.9614" fill="none" stroke="#202a30" stroke-width="0.1062" stroke-linecap="round" stroke-linejoin="round"/><path d="M10.1032 11.7937 L10.1032 12.9614" fill="none" stroke="#202a30" stroke-width="0.1062" stroke-linecap="round" stroke-linejoin="round"/><path d="M12.4227 12.9614 L12.4227 14.1728" fill="none" stroke="#202a30" stroke-width="0.1062" stroke-linecap="round" stroke-linejoin="round"/><path d="M17.7341 12.9614 L17.7341 14.1728" fill="none" stroke="#202a30" stroke-width="0.1062" stroke-linecap="round" stroke-linejoin="round"/><path d="M10.3643 14.1728 L10.3643 14.9232" fill="none" stroke="#202a30" stroke-width="0.1062" stroke-linecap="round" stroke-linejoin="round"/><path d="M15.1448 14.1728 L15.1448 14.9232" fill="none" stroke="#202a30" stroke-width="0.1062" stroke-linecap="round" stroke-linejoin="round"/><path d="M0.0000 1.7657 L8.0768 1.7657" fill="none" stroke="#202a30" stroke-width="0.1062" stroke-linecap="round" stroke-linejoin="round"/><path d="M0.0000 3.1013 L8.0768 3.1013" fill="none" stroke="#202a30" stroke-width="0.1062" stroke-linecap="round" stroke-linejoin="round"/><path d="M0.0000 0.4875 L8.0768 0.4875" fill="none" stroke="#202a30" stroke-width="0.1062" stroke-linecap="round" stroke-linejoin="round"/><path d="M0.0000 5.8561 L8.0768 5.8561" fill="none" stroke="#202a30" stroke-width="0.1062" stroke-linecap="round" stroke-linejoin="round"/><path d="M0.3041 5.8519 L0.3041 6.1524" fill="none" stroke="#202a30" stroke-width="0.1062" stroke-linecap="round" stroke-linejoin="round"/><path d="M5.3943 5.8519 L5.3943 6.1524" fill="none" stroke="#202a30" stroke-width="0.1062" stroke-linecap="round" stroke-linejoin="round"/><path d="M3.8541 0.0000 L3.8541 0.4830" fill="none" stroke="#202a30" stroke-width="0.1062" stroke-linecap="round" stroke-linejoin="round"/><path d="M0.8650 0.5052 L0.8650 1.7657" fill="none" stroke="#202a30" stroke-width="0.1062" stroke-linecap="round" stroke-linejoin="round"/><path d="M6.1320 0.5052 L6.1320 1.7657" fill="none" stroke="#202a30" stroke-width="0.1062" stroke-linecap="round" stroke-linejoin="round"/><path d="M3.1754 1.7833 L3.1754 3.1143" fill="none" stroke="#202a30" stroke-width="0.1062" stroke-linecap="round" stroke-linejoin="round"/><path d="M7.9382 1.7833 L7.9382 3.1143" fill="none" stroke="#202a30" stroke-width="0.1062" stroke-linecap="round" stroke-linejoin="round"/><path d="M0.0000 4.6623 L8.0768 4.6623" fill="none" stroke="#202a30" stroke-width="0.1062" stroke-linecap="round" stroke-linejoin="round"/><path d="M2.4938 4.6531 L2.4938 5.8783" fill="none" stroke="#202a30" stroke-width="0.1062" stroke-linecap="round" stroke-linejoin="round"/><path d="M7.2298 4.6531 L7.2298 5.8783" fill="none" stroke="#202a30" stroke-width="0.1062" stroke-linecap="round" stroke-linejoin="round"/><path d="M0.0903 3.1143 L0.0903 4.6531" fill="none" stroke="#202a30" stroke-width="0.1062" stroke-linecap="round" stroke-linejoin="round"/><path d="M5.2469 3.1143 L5.2469 4.6531" fill="none" stroke="#202a30" stroke-width="0.1062" stroke-linecap="round" stroke-linejoin="round"/><path d="M8.0052 1.7657 L18.7329 1.7657" fill="none" stroke="#202a30" stroke-width="0.1062" stroke-linecap="round" stroke-linejoin="round"/><path d="M8.0052 3.1013 L18.7329 3.1013" fill="none" stroke="#202a30" stroke-width="0.1062" stroke-linecap="round" stroke-linejoin="round"/><path d="M8.0052 0.4875 L18.7329 0.4875" fill="none" stroke="#202a30" stroke-width="0.1062" stroke-linecap="round" stroke-linejoin="round"/><path d="M8.0052 5.8561 L18.7329 5.8561" fill="none" stroke="#202a30" stroke-width="0.1062" stroke-linecap="round" stroke-linejoin="round"/><path d="M10.1032 5.8519 L10.1032 6.1524" fill="none" stroke="#202a30" stroke-width="0.1062" stroke-linecap="round" stroke-linejoin="round"/><path d="M14.6181 5.8519 L14.6181 6.1524" fill="none" stroke="#202a30" stroke-width="0.1062" stroke-linecap="round" stroke-linejoin="round"/><path d="M17.9377 0.0000 L17.9377 0.4830" fill="none" stroke="#202a30" stroke-width="0.1062" stroke-linecap="round" stroke-linejoin="round"/><path d="M12.5818 0.0000 L12.5818 0.4830" fill="none" stroke="#202a30" stroke-width="0.1062" stroke-linecap="round" stroke-linejoin="round"/><path d="M8.1851 0.0000 L8.1851 0.4830" fill="none" stroke="#202a30" stroke-width="0.1062" stroke-linecap="round" stroke-linejoin="round"/><path d="M10.4426 0.5052 L10.4426 1.7657" fill="none" stroke="#202a30" stroke-width="0.1062" stroke-linecap="round" stroke-linejoin="round"/><path d="M15.1345 0.5052 L15.1345 1.7657" fill="none" stroke="#202a30" stroke-width="0.1062" stroke-linecap="round" stroke-linejoin="round"/><path d="M17.3563 1.7833 L17.3563 3.1143" fill="none" stroke="#202a30" stroke-width="0.1062" stroke-linecap="round" stroke-linejoin="round"/><path d="M12.2043 1.7833 L12.2043 3.1143" fill="none" stroke="#202a30" stroke-width="0.1062" stroke-linecap="round" stroke-linejoin="round"/><path d="M8.0052 4.6623 L18.7329 4.6623" fill="none" stroke="#202a30" stroke-width="0.1062" stroke-linecap="round" stroke-linejoin="round"/><path d="M11.6508 4.6531 L11.6508 5.8783" fill="none" stroke="#202a30" stroke-width="0.1062" stroke-linecap="round" stroke-linejoin="round"/><path d="M16.7633 4.6531 L16.7633 5.8783" fill="none" stroke="#202a30" stroke-width="0.1062" stroke-linecap="round" stroke-linejoin="round"/><path d="M9.6238 3.1143 L9.6238 4.6531" fill="none" stroke="#202a30" stroke-width="0.1062" stroke-linecap="round" stroke-linejoin="round"/><path d="M14.2272 3.1143 L14.2272 4.6531" fill="none" stroke="#202a30" stroke-width="0.1062" stroke-linecap="round" stroke-linejoin="round"/></svg>