<svg xmlns="http://www.w3.org/2000/svg" viewBox="0 0 18.7325 14.9225" width="18.7325mm" height="14.9225mm"><title>Tuff - FGDC 711</title><rect width="100%" height="100%" fill="white"/><path d="M0.2358 8.2024 L0.0000 8.5810" fill="none" stroke="#202a30" stroke-width="0.1062" stroke-linecap="round" stroke-linejoin="round"/><path d="M2.9154 8.2024 L2.4947 8.8780 L2.4947 9.3526" fill="none" stroke="#202a30" stroke-width="0.1062" stroke-linecap="round" stroke-linejoin="round"/><path d="M5.6174 8.2024 L5.1966 8.8780 L5.1966 9.3526" fill="none" stroke="#202a30" stroke-width="0.1062" stroke-linecap="round" stroke-linejoin="round"/><path d="M8.3411 8.2024 L7.9204 8.8780 L7.9204 9.3526" fill="none" stroke="#202a30" stroke-width="0.1062" stroke-linecap="round" stroke-linejoin="round"/><path d="M11.0872 8.2024 L10.6664 8.8780 L10.6664 9.3526" fill="none" stroke="#202a30" stroke-width="0.1062" stroke-linecap="round" stroke-linejoin="round"/><path d="M9.6923 11.8849 L9.2712 11.2093 L9.2712 10.7348" fill="none" stroke="#202a30" stroke-width="0.1062" stroke-linecap="round" stroke-linejoin="round"/><path d="M6.9459 11.8849 L6.5252 11.2093 L6.5252 10.7348" fill="none" stroke="#202a30" stroke-width="0.1062" stroke-linecap="round" stroke-linejoin="round"/><path d="M4.2221 11.8849 L3.8014 11.2093 L3.8014 10.7348" fill="none" stroke="#202a30" stroke-width="0.1062" stroke-linecap="round" stroke-linejoin="round"/><path d="M1.5202 11.8849 L1.0995 11.2093 L1.0995 10.7348" fill="none" stroke="#202a30" stroke-width="0.1062" stroke-linecap="round" stroke-linejoin="round"/><path d="M0.2358 13.6740 L0.0000 14.0526" fill="none" stroke="#202a30" stroke-width="0.1062" stroke-linecap="round" stroke-linejoin="round"/><path d="M2.9154 13.6740 L2.4947 14.3496 L2.4947 14.8245" fill="none" stroke="#202a30" stroke-width="0.1062" stroke-linecap="round" stroke-linejoin="round"/><path d="M5.6174 13.6740 L5.1966 14.3496 L5.1966 14.8245" fill="none" stroke="#202a30" stroke-width="0.1062" stroke-linecap="round" stroke-linejoin="round"/><path d="M8.3411 13.6740 L7.9204 14.3496 L7.9204 14.8245" fill="none" stroke="#202a30" stroke-width="0.1062" stroke-linecap="round" stroke-linejoin="round"/><path d="M11.0872 13.6740 L10.6664 14.3496 L10.6664 14.8245" fill="none" stroke="#202a30" stroke-width="0.1062" stroke-linecap="round" stroke-linejoin="round"/><path d="M13.7397 8.2024 L13.3189 8.8780 L13.3189 9.3526" fill="none" stroke="#202a30" stroke-width="0.1062" stroke-linecap="round" stroke-linejoin="round"/><path d="M16.4635 8.2024 L16.0427 8.8780 L16.0427 9.3526" fill="none" stroke="#202a30" stroke-width="0.1062" stroke-linecap="round" stroke-linejoin="round"/><path d="M18.7325 8.8618 L18.7224 8.8780 M18.7224 8.8780 L18.7224 9.3526" fill="none" stroke="#202a30" stroke-width="0.1062" stroke-linecap="round" stroke-linejoin="round"/><path d="M17.7482 11.8849 L17.3272 11.2093 L17.3272 10.7348" fill="none" stroke="#202a30" stroke-width="0.1062" stroke-linecap="round" stroke-linejoin="round"/><path d="M15.0686 11.8849 L14.6478 11.2093 L14.6478 10.7348" fill="none" stroke="#202a30" stroke-width="0.1062" stroke-linecap="round" stroke-linejoin="round"/><path d="M12.3444 11.8849 L11.9237 11.2093 L11.9237 10.7348" fill="none" stroke="#202a30" stroke-width="0.1062" stroke-linecap="round" stroke-linejoin="round"/><path d="M13.7397 13.6740 L13.3189 14.3496 L13.3189 14.8245" fill="none" stroke="#202a30" stroke-width="0.1062" stroke-linecap="round" stroke-linejoin="round"/><path d="M16.4635 13.6740 L16.0427 14.3496 L16.0427 14.8245" fill="none" stroke="#202a30" stroke-width="0.1062" stroke-linecap="round" stroke-linejoin="round"/><path d="M18.7325 14.3333 L18.7224 14.3496 M18.7224 14.3496 L18.7224 14.8245" fill="none" stroke="#202a30" stroke-width="0.1062" stroke-linecap="round" stroke-linejoin="round"/><path d="M9.6923 1.1216 L9.2712 0.4460 M9.2712 0.4460 L9.2712 0.0000" fill="none" stroke="#202a30" stroke-width="0.1062" stroke-linecap="round" stroke-linejoin="round"/><path d="M6.9459 1.1216 L6.5252 0.4460 M6.5252 0.4460 L6.5252 0.0000" fill="none" stroke="#202a30" stroke-width="0.1062" stroke-linecap="round" stroke-linejoin="round"/><path d="M4.2221 1.1216 L3.8014 0.4460 M3.8014 0.4460 L3.8014 0.0000" fill="none" stroke="#202a30" stroke-width="0.1062" stroke-linecap="round" stroke-linejoin="round"/><path d="M1.5202 1.1216 L1.0995 0.4460 M1.0995 0.4460 L1.0995 0.0000" fill="none" stroke="#202a30" stroke-width="0.1062" stroke-linecap="round" stroke-linejoin="round"/><path d="M0.2358 2.8740 L0.0000 3.2524" fill="none" stroke="#202a30" stroke-width="0.1062" stroke-linecap="round" stroke-linejoin="round"/><path d="M2.9154 2.8740 L2.4947 3.5492 L2.4947 4.0241" fill="none" stroke="#202a30" stroke-width="0.1062" stroke-linecap="round" stroke-linejoin="round"/><path d="M5.6174 2.8740 L5.1966 3.5492 L5.1966 4.0241" fill="none" stroke="#202a30" stroke-width="0.1062" stroke-linecap="round" stroke-linejoin="round"/><path d="M8.3411 2.8740 L7.9204 3.5492 L7.9204 4.0241" fill="none" stroke="#202a30" stroke-width="0.1062" stroke-linecap="round" stroke-linejoin="round"/><path d="M11.0872 2.8740 L10.6664 3.5492 L10.6664 4.0241" fill="none" stroke="#202a30" stroke-width="0.1062" stroke-linecap="round" stroke-linejoin="round"/><path d="M9.6923 6.5375 L9.2712 5.8619 L9.2712 5.3869" fill="none" stroke="#202a30" stroke-width="0.1062" stroke-linecap="round" stroke-linejoin="round"/><path d="M6.9459 6.5375 L6.5252 5.8619 L6.5252 5.3869" fill="none" stroke="#202a30" stroke-width="0.1062" stroke-linecap="round" stroke-linejoin="round"/><path d="M4.2221 6.5375 L3.8014 5.8619 L3.8014 5.3869" fill="none" stroke="#202a30" stroke-width="0.1062" stroke-linecap="round" stroke-linejoin="round"/><path d="M1.5202 6.5375 L1.0995 5.8619 L1.0995 5.3869" fill="none" stroke="#202a30" stroke-width="0.1062" stroke-linecap="round" stroke-linejoin="round"/><path d="M17.7482 1.1216 L17.3272 0.4460 M17.3272 0.4460 L17.3272 0.0000" fill="none" stroke="#202a30" stroke-width="0.1062" stroke-linecap="round" stroke-linejoin="round"/><path d="M15.0686 1.1216 L14.6478 0.4460 M14.6478 0.4460 L14.6478 0.0000" fill="none" stroke="#202a30" stroke-width="0.1062" stroke-linecap="round" stroke-linejoin="round"/><path d="M12.3444 1.1216 L11.9237 0.4460 M11.9237 0.4460 L11.9237 0.0000" fill="none" stroke="#202a30" stroke-width="0.1062" stroke-linecap="round" stroke-linejoin="round"/><path d="M13.7397 2.8740 L13.3189 3.5492 L13.3189 4.0241" fill="none" stroke="#202a30" stroke-width="0.1062" stroke-linecap="round" stroke-linejoin="round"/><path d="M16.4635 2.8740 L16.0427 3.5492 L16.0427 4.0241" fill="none" stroke="#202a30" stroke-width="0.1062" stroke-linecap="round" stroke-linejoin="round"/><path d="M18.7325 3.5330 L18.7224 3.5492 M18.7224 3.5492 L18.7224 4.0241" fill="none" stroke="#202a30" stroke-width="0.1062" stroke-linecap="round" stroke-linejoin="round"/><path d="M17.7482 6.5375 L17.3272 5.8619 L17.3272 5.3869" fill="none" stroke="#202a30" stroke-width="0.1062" stroke-linecap="round" stroke-linejoin="round"/><path d="M15.0686 6.5375 L14.6478 5.8619 L14.6478 5.3869" fill="none" stroke="#202a30" stroke-width="0.1062" stroke-linecap="round" stroke-linejoin="round"/><path d="M12.3444 6.5375 L11.9237 5.8619 L11.9237 5.3869" fill="none" stroke="#202a30" stroke-width="0.1062" stroke-linecap="round" stroke-linejoin="round"/><path d="M2.4947 8.8780 L2.0740 8.2024" fill="none" stroke="#202a30" stroke-width="0.1062" stroke-linecap="round" stroke-linejoin="round"/><path d="M5.1966 8.8780 L4.7759 8.2024" fill="none" stroke="#202a30" stroke-width="0.1062" stroke-linecap="round" stroke-linejoin="round"/><path d="M7.9204 8.8780 L7.4997 8.2024" fill="none" stroke="#202a30" stroke-width="0.1062" stroke-linecap="round" stroke-linejoin="round"/><path d="M10.6664 8.8780 L10.2457 8.2024" fill="none" stroke="#202a30" stroke-width="0.1062" stroke-linecap="round" stroke-linejoin="round"/><path d="M9.2712 11.2093 L8.8505 11.8849" fill="none" stroke="#202a30" stroke-width="0.1062" stroke-linecap="round" stroke-linejoin="round"/><path d="M6.5252 11.2093 L6.1044 11.8849" fill="none" stroke="#202a30" stroke-width="0.1062" stroke-linecap="round" stroke-linejoin="round"/><path d="M3.8014 11.2093 L3.3807 11.8849" fill="none" stroke="#202a30" stroke-width="0.1062" stroke-linecap="round" stroke-linejoin="round"/><path d="M1.0995 11.2093 L0.6787 11.8849" fill="none" stroke="#202a30" stroke-width="0.1062" stroke-linecap="round" stroke-linejoin="round"/><path d="M2.4947 14.3496 L2.0740 13.6740" fill="none" stroke="#202a30" stroke-width="0.1062" stroke-linecap="round" stroke-linejoin="round"/><path d="M5.1966 14.3496 L4.7759 13.6740" fill="none" stroke="#202a30" stroke-width="0.1062" stroke-linecap="round" stroke-linejoin="round"/><path d="M7.9204 14.3496 L7.4997 13.6740" fill="none" stroke="#202a30" stroke-width="0.1062" stroke-linecap="round" stroke-linejoin="round"/><path d="M10.6664 14.3496 L10.2457 13.6740" fill="none" stroke="#202a30" stroke-width="0.1062" stroke-linecap="round" stroke-linejoin="round"/><path d="M13.3189 8.8780 L12.8982 8.2024" fill="none" stroke="#202a30" stroke-width="0.1062" stroke-linecap="round" stroke-linejoin="round"/><path d="M16.0427 8.8780 L15.6220 8.2024" fill="none" stroke="#202a30" stroke-width="0.1062" stroke-linecap="round" stroke-linejoin="round"/><path d="M18.7224 8.8780 L18.3017 8.2024" fill="none" stroke="#202a30" stroke-width="0.1062" stroke-linecap="round" stroke-linejoin="round"/><path d="M17.3272 11.2093 L16.9064 11.8849" fill="none" stroke="#202a30" stroke-width="0.1062" stroke-linecap="round" stroke-linejoin="round"/><path d="M14.6478 11.2093 L14.2268 11.8849" fill="none" stroke="#202a30" stroke-width="0.1062" stroke-linecap="round" stroke-linejoin="round"/><path d="M11.9237 11.2093 L11.5030 11.8849" fill="none" stroke="#202a30" stroke-width="0.1062" stroke-linecap="round" stroke-linejoin="round"/><path d="M13.3189 14.3496 L12.8982 13.6740" fill="none" stroke="#202a30" stroke-width="0.1062" stroke-linecap="round" stroke-linejoin="round"/><path d="M16.0427 14.3496 L15.6220 13.6740" fill="none" stroke="#202a30" stroke-width="0.1062" stroke-linecap="round" stroke-linejoin="round"/><path d="M18.7224 14.3496 L18.3017 13.6740" fill="none" stroke="#202a30" stroke-width="0.1062" stroke-linecap="round" stroke-linejoin="round"/><path d="M9.2712 0.4460 L8.8505 1.1216" fill="none" stroke="#202a30" stroke-width="0.1062" stroke-linecap="round" stroke-linejoin="round"/><path d="M6.5252 0.4460 L6.1044 1.1216" fill="none" stroke="#202a30" stroke-width="0.1062" stroke-linecap="round" stroke-linejoin="round"/><path d="M3.8014 0.4460 L3.3807 1.1216" fill="none" stroke="#202a30" stroke-width="0.1062" stroke-linecap="round" stroke-linejoin="round"/><path d="M1.0995 0.4460 L0.6787 1.1216" fill="none" stroke="#202a30" stroke-width="0.1062" stroke-linecap="round" stroke-linejoin="round"/><path d="M2.4947 3.5492 L2.0740 2.8740" fill="none" stroke="#202a30" stroke-width="0.1062" stroke-linecap="round" stroke-linejoin="round"/><path d="M5.1966 3.5492 L4.7759 2.8740" fill="none" stroke="#202a30" stroke-width="0.1062" stroke-linecap="round" stroke-linejoin="round"/><path d="M7.9204 3.5492 L7.4997 2.8740" fill="none" stroke="#202a30" stroke-width="0.1062" stroke-linecap="round" stroke-linejoin="round"/><path d="M10.6664 3.5492 L10.2457 2.8740" fill="none" stroke="#202a30" stroke-width="0.1062" stroke-linecap="round" stroke-linejoin="round"/><path d="M9.2712 5.8619 L8.8505 6.5375" fill="none" stroke="#202a30" stroke-width="0.1062" stroke-linecap="round" stroke-linejoin="round"/><path d="M6.5252 5.8619 L6.1044 6.5375" fill="none" stroke="#202a30" stroke-width="0.1062" stroke-linecap="round" stroke-linejoin="round"/><path d="M3.8014 5.8619 L3.3807 6.5375" fill="none" stroke="#202a30" stroke-width="0.1062" stroke-linecap="round" stroke-linejoin="round"/><path d="M1.0995 5.8619 L0.6787 6.5375" fill="none" stroke="#202a30" stroke-width="0.1062" stroke-linecap="round" stroke-linejoin="round"/><path d="M17.3272 0.4460 L16.9064 1.1216" fill="none" stroke="#202a30" stroke-width="0.1062" stroke-linecap="round" stroke-linejoin="round"/><path d="M14.6478 0.4460 L14.2268 1.1216" fill="none" stroke="#202a30" stroke-width="0.1062" stroke-linecap="round" stroke-linejoin="round"/><path d="M11.9237 0.4460 L11.5030 1.1216" fill="none" stroke="#202a30" stroke-width="0.1062" stroke-linecap="round" stroke-linejoin="round"/><path d="M13.3189 3.5492 L12.8982 2.8740" fill="none" stroke="#202a30" stroke-width="0.1062" stroke-linecap="round" stroke-linejoin="round"/><path d="M16.0427 3.5492 L15.6220 2.8740" fill="none" stroke="#202a30" stroke-width="0.1062" stroke-linecap="round" stroke-linejoin="round"/><path d="M18.7224 3.5492 L18.3017 2.8740" fill="none" stroke="#202a30" stroke-width="0.1062" stroke-linecap="round" stroke-linejoin="round"/><path d="M17.3272 5.8619 L16.9064 6.5375" fill="none" stroke="#202a30" stroke-width="0.1062" stroke-linecap="round" stroke-linejoin="round"/><path d="M14.6478 5.8619 L14.2268 6.5375" fill="none" stroke="#202a30" stroke-width="0.1062" stroke-linecap="round" stroke-linejoin="round"/><path d="M11.9237 5.8619 L11.5030 6.5375" fill="none" stroke="#202a30" stroke-width="0.1062" stroke-linecap="round" stroke-linejoin="round"/></svg>